<svg width="301" height="80" viewBox="0 0 301 80" fill="none" xmlns="http://www.w3.org/2000/svg">
<path d="M50.6641 61.2039H39.2058C37.3575 61.2039 35.5436 61.7028 33.9552 62.6478L7.20752 78.5759L8.02887 79.957L28.4531 74.1366C30.2829 73.615 32.1762 73.3501 34.0789 73.3497H55.791C57.6936 73.3501 59.587 73.615 61.4167 74.1366L81.839 79.957L82.6623 78.5759L55.9147 62.6478C54.3263 61.7028 52.5123 61.2039 50.6641 61.2039Z" fill="white"/>
<path d="M30.4427 48.7943L36.7458 38.3439C37.7114 36.7442 38.2218 34.9112 38.2222 33.0427V0H36.614L31.0816 24.0037C30.598 26.1055 29.7856 28.1178 28.6743 29.9661L18.3415 47.1658C17.488 48.5828 16.4666 49.8915 15.2994 51.0637L0 66.4646L0.811211 67.8375L26.8977 52.313C28.3509 51.4496 29.5685 50.241 30.4427 48.7943Z" fill="white"/>
<path d="M71.5286 47.1658L61.1856 29.9661C60.0743 28.1178 59.2619 26.1055 58.7784 24.0037L53.2561 0H51.6478V33.0427C51.648 34.9106 52.1585 36.743 53.1242 38.3419L59.4213 48.7943C60.2938 50.2403 61.5093 51.4488 62.9602 52.313L89.0467 67.8375L89.8579 66.4646L74.5524 51.0637C73.3921 49.8901 72.3769 48.5814 71.5286 47.1658Z" fill="white"/>
<path d="M157.42 26.9544L153.694 30.6819C152.514 31.8669 151.852 33.4713 151.853 35.1436V44.2961C151.851 45.1264 152.014 45.9488 152.331 46.7161C152.648 47.4835 153.113 48.1807 153.7 48.7679L157.434 52.4629C158.02 53.0519 158.717 53.5187 159.484 53.8362C160.252 54.1536 161.075 54.3156 161.906 54.3125H181.691V46.9041H163.053C162.832 46.9044 162.613 46.8611 162.408 46.7765C162.203 46.6919 162.018 46.5678 161.861 46.4113L159.766 44.3184C159.453 44.0004 159.276 43.5723 159.275 43.1259V36.2854C159.275 36.0651 159.318 35.8468 159.402 35.6433C159.487 35.4397 159.61 35.2547 159.766 35.099L161.861 32.9979C162.178 32.6831 162.607 32.5066 163.053 32.5071H181.683V25.0988H161.883C161.054 25.0982 160.232 25.2619 159.466 25.5804C158.7 25.8989 158.004 26.3659 157.42 26.9544Z" fill="white"/>
<path d="M253.027 26.9545C252.441 26.3665 251.743 25.9004 250.976 25.5833C250.208 25.2662 249.386 25.1043 248.555 25.107H223.961V54.3106H231.37V48.4962H248.511C249.339 48.4975 250.16 48.335 250.926 48.0179C251.692 47.7008 252.387 47.2355 252.972 46.6487L255.655 43.9717C256.835 42.7867 257.497 41.1823 257.497 39.51V34.083C257.505 32.4262 256.86 30.833 255.7 29.6497L253.027 26.9545ZM250.141 38.3561C250.141 38.5764 250.098 38.7946 250.014 38.9981C249.93 39.2017 249.806 39.3867 249.65 39.5425L248.606 40.593C248.289 40.9078 247.86 41.0843 247.413 41.0838H231.422V32.5072H247.419C247.866 32.5067 248.295 32.6832 248.612 32.998L249.656 34.0485C249.97 34.3636 250.147 34.7902 250.147 35.2349L250.141 38.3561Z" fill="white"/>
<path d="M188.236 32.5153H199.286V54.3207H206.695V32.5153H217.754V25.1069H188.236V32.5153Z" fill="white"/>
<path d="M132.045 25.1433H125.961C124.988 25.1408 124.034 25.4102 123.206 25.9212C122.378 26.4322 121.71 27.1645 121.276 28.0353L107.989 54.3206H116.291L119.412 48.1574H138.596L141.725 54.3571H150.019L136.74 28.0353C136.302 27.1661 135.631 26.4355 134.802 25.9249C133.973 25.4143 133.019 25.1438 132.045 25.1433ZM123.146 40.7044L126.932 33.2007C127.037 32.992 127.198 32.8165 127.397 32.694C127.595 32.5715 127.824 32.5068 128.058 32.5071H129.942C130.175 32.5075 130.404 32.5725 130.603 32.6949C130.801 32.8174 130.962 32.9924 131.067 33.2007L134.854 40.7044H123.146Z" fill="white"/>
<path d="M287.739 28.0357C287.305 27.1655 286.638 26.4336 285.81 25.9226C284.983 25.4117 284.03 25.1419 283.058 25.1437H276.974C276.001 25.1452 275.048 25.4164 274.221 25.9269C273.393 26.4374 272.723 27.1673 272.285 28.0357L259.006 54.3574H267.294L270.446 48.1577H289.629L292.758 54.3574H301L287.739 28.0357ZM274.169 40.7047L277.962 33.201C278.066 32.9917 278.226 32.8158 278.425 32.6932C278.624 32.5706 278.853 32.5062 279.087 32.5075H280.965C281.199 32.5062 281.428 32.5706 281.627 32.6932C281.826 32.8158 281.987 32.9917 282.091 33.201L285.869 40.7047H274.169Z" fill="white"/>
</svg>
