<svg width="745" height="157" viewBox="0 0 745 157" fill="none" xmlns="http://www.w3.org/2000/svg">
<path d="M133 12.5197H167.121C190.256 12.5197 201.824 21.7007 201.824 40.0627C201.824 46.3649 200.543 51.5778 197.981 55.7015C195.496 59.8251 191.692 63.093 186.568 65.5049L206.947 97.3661H182.958L165.607 69.2396H154.893V97.3661H133V12.5197ZM154.427 51.7334H165.956C170.226 51.7334 173.448 50.9554 175.622 49.3993C177.873 47.7654 178.999 45.0811 178.999 41.3464C178.999 37.8452 177.912 35.2776 175.738 33.6437C173.642 32.0098 170.071 31.1929 165.024 31.1929H154.427V51.7334Z" fill="white"/>
<path d="M243.276 81.7273C253.446 81.7273 258.531 76.3198 258.531 65.5049C258.531 59.9029 257.289 55.8182 254.805 53.2506C252.321 50.683 248.478 49.3993 243.276 49.3993C238.385 49.3993 234.62 50.683 231.98 53.2506C229.418 55.8182 228.137 59.9029 228.137 65.5049C228.137 71.0291 229.496 75.1138 232.213 77.7592C234.93 80.4046 238.618 81.7273 243.276 81.7273ZM243.276 98.7666C231.709 98.7666 222.742 96.0823 216.376 90.7138C210.087 85.3452 206.943 76.9423 206.943 65.5049C206.943 59.9808 207.797 55.1568 209.505 51.0332C211.213 46.9095 213.62 43.4861 216.725 40.7629C219.908 37.9619 223.712 35.8612 228.137 34.4607C232.64 33.0602 237.686 32.3599 243.276 32.3599C254.766 32.3599 263.694 35.0831 270.06 40.5295C276.504 45.898 279.726 54.2232 279.726 65.5049C279.726 76.4754 276.582 84.7617 270.293 90.3636C264.005 95.9656 254.999 98.7666 243.276 98.7666Z" fill="white"/>
<path d="M325.645 70.64C324.48 70.4066 323.044 70.2121 321.336 70.0565C319.706 69.9009 317.959 69.8231 316.096 69.8231C311.049 69.8231 307.517 70.4455 305.498 71.6904C303.557 72.8575 302.587 74.4914 302.587 76.5921C302.587 78.5373 303.325 80.1712 304.8 81.4939C306.352 82.8165 308.875 83.4779 312.369 83.4779C316.328 83.4779 319.511 82.5831 321.918 80.7936C324.402 79.0041 325.645 76.5921 325.645 73.5577V70.64ZM346.14 97.3661H326.11V88.8464H325.761C325.062 90.0135 324.17 91.1806 323.083 92.3477C321.996 93.5147 320.598 94.5651 318.89 95.4988C317.26 96.4324 315.28 97.2105 312.951 97.8329C310.7 98.4554 308.021 98.7666 304.916 98.7666C297.618 98.7666 291.99 97.016 288.03 93.5147C284.071 90.0135 282.091 85.1118 282.091 78.8096C282.091 72.0405 284.498 67.0999 289.311 63.9877C294.125 60.7977 301.617 59.2027 311.787 59.2027C314.892 59.2027 317.687 59.3194 320.171 59.5528C322.656 59.7862 324.48 59.9808 325.645 60.1364V57.5688C325.645 54.6122 324.674 52.4337 322.733 51.0332C320.792 49.5549 317.26 48.8157 312.136 48.8157C307.478 48.8157 303.053 49.3215 298.861 50.3329C294.668 51.2666 291.252 52.3559 288.613 53.6007V37.145C291.408 35.9779 295.289 34.8886 300.258 33.8771C305.227 32.8657 310.816 32.3599 317.027 32.3599C322.229 32.3599 326.654 32.8268 330.303 33.7604C334.029 34.6941 337.057 36.2113 339.386 38.312C341.715 40.335 343.423 43.0192 344.51 46.3649C345.597 49.7105 346.14 53.8341 346.14 58.7359V97.3661Z" fill="white"/>
<path d="M402.49 89.1966C401.481 90.5192 400.316 91.7641 398.996 92.9312C397.754 94.0205 396.279 95.0319 394.571 95.9656C392.863 96.8215 390.922 97.4828 388.748 97.9496C386.575 98.4943 384.09 98.7666 381.295 98.7666C371.358 98.7666 363.789 95.8489 358.587 90.0135C353.386 84.1781 350.785 76.0475 350.785 65.6216C350.785 59.9418 351.483 55.0401 352.881 50.9165C354.356 46.715 356.375 43.2527 358.936 40.5295C361.576 37.7285 364.681 35.6667 368.253 34.344C371.824 33.0213 375.744 32.3599 380.014 32.3599C383.12 32.3599 385.837 32.6712 388.166 33.2936C390.573 33.916 392.669 34.733 394.455 35.7445C396.24 36.6781 397.754 37.7285 398.996 38.8956C400.238 40.0626 401.286 41.1519 402.14 42.1634H402.49V4H422.985V97.3661H402.956V89.1966H402.49ZM386.885 81.7273C392.164 81.7273 396.085 80.2879 398.647 77.4091C401.209 74.5303 402.49 70.5622 402.49 65.5049C402.49 60.3698 401.17 56.4017 398.53 53.6007C395.891 50.7998 392.048 49.3993 387.002 49.3993C382.654 49.3993 379.044 50.683 376.171 53.2506C373.377 55.8182 371.979 60.0586 371.979 65.9717C371.979 71.3403 373.299 75.3083 375.939 77.8759C378.578 80.4435 382.227 81.7273 386.885 81.7273Z" fill="white"/>
<path d="M430.55 74.8415C431.87 75.6196 433.462 76.3587 435.325 77.059C437.188 77.6814 439.207 78.2649 441.38 78.8096C443.554 79.2764 445.806 79.6654 448.135 79.9767C450.541 80.2101 452.909 80.3268 455.238 80.3268C459.974 80.3268 463.506 79.8988 465.836 79.043C468.242 78.1093 469.446 76.3976 469.446 73.9079C469.446 72.7408 469.251 71.7293 468.863 70.8735C468.553 70.0176 467.854 69.2007 466.767 68.4226C465.758 67.5667 464.244 66.7109 462.225 65.855C460.285 64.9992 457.684 64.0266 454.423 62.9373L450.93 61.7703C443.632 59.3583 438.197 56.1294 434.626 52.0835C431.133 48.0377 429.386 42.5524 429.386 35.6278C429.386 27.8473 432.297 21.7785 438.12 17.4214C443.942 13.0643 452.094 10.8857 462.575 10.8857C472.357 10.8857 480.509 12.1695 487.03 14.7371V33.0602C483.924 31.9709 480.314 31.1151 476.2 30.4926C472.163 29.8702 468.281 29.559 464.555 29.559C460.129 29.559 456.946 30.0258 455.005 30.9595C453.142 31.8931 452.211 33.527 452.211 35.8612C452.211 36.7948 452.482 37.6507 453.026 38.4287C453.569 39.2068 454.462 40.0237 455.704 40.8796C457.024 41.6577 458.771 42.4746 460.944 43.3305C463.118 44.1863 465.836 45.1978 469.096 46.3649L472.823 47.6486C479.655 49.9828 484.584 53.0561 487.612 56.8685C490.718 60.6032 492.27 65.466 492.27 71.457C492.27 80.4046 489.165 87.2514 482.954 91.9975C476.821 96.6658 467.97 99 456.403 99C451.667 99 447.087 98.5721 442.661 97.7162C438.314 96.9382 434.277 95.6933 430.55 93.9816V74.8415Z" fill="white"/>
<path d="M565.04 97.3661H544.544V64.688C544.544 59.0082 543.69 55.0401 541.982 52.7838C540.274 50.5274 537.285 49.3993 533.015 49.3993C528.202 49.3993 524.669 50.8387 522.418 53.7174C520.244 56.5184 519.157 60.9533 519.157 67.0221V97.3661H498.662V4H519.157V42.5135H519.507C524.009 35.7445 531.229 32.3599 541.167 32.3599C557.082 32.3599 565.04 40.8018 565.04 57.6855V97.3661Z" fill="white"/>
<path d="M606.008 81.7273C616.178 81.7273 621.263 76.3198 621.263 65.5049C621.263 59.9029 620.021 55.8182 617.537 53.2506C615.053 50.683 611.21 49.3993 606.008 49.3993C601.117 49.3993 597.352 50.683 594.712 53.2506C592.15 55.8182 590.869 59.9029 590.869 65.5049C590.869 71.0291 592.228 75.1138 594.945 77.7592C597.662 80.4046 601.35 81.7273 606.008 81.7273ZM606.008 98.7666C594.441 98.7666 585.474 96.0823 579.108 90.7138C572.819 85.3452 569.675 76.9423 569.675 65.5049C569.675 59.9808 570.529 55.1568 572.237 51.0332C573.945 46.9095 576.352 43.4861 579.457 40.7629C582.64 37.9619 586.444 35.8612 590.869 34.4607C595.372 33.0602 600.418 32.3599 606.008 32.3599C617.498 32.3599 626.426 35.0831 632.792 40.5295C639.236 45.898 642.458 54.2232 642.458 65.5049C642.458 76.4754 639.314 84.7617 633.025 90.3636C626.737 95.9656 617.731 98.7666 606.008 98.7666Z" fill="white"/>
<path d="M728.58 97.3661H703.543L692.713 54.6511L682.116 97.3661H656.845L640.775 33.7604H662.086L670.936 77.059L682.348 33.7604H703.659L714.955 77.2924L724.271 33.7604H745L728.58 97.3661Z" fill="white"/>
<path fill-rule="evenodd" clip-rule="evenodd" d="M113 56.625C113 97.3384 56.5 151 56.5 151C56.5 151 0 97.3384 0 56.625C0 41.6071 5.95266 27.2043 16.5485 16.5851C27.1443 5.96583 41.5153 0 56.5 0C71.4847 0 85.8557 5.96583 96.4515 16.5851C107.047 27.2043 113 41.6071 113 56.625ZM51.7427 68.8145H60.9056C62.3866 68.8285 63.8363 69.2414 65.1019 70.0097L86.4946 82.7079L85.8363 83.8134L69.5001 79.1599C68.0405 78.7437 66.53 78.5326 65.0121 78.5324H47.6437C46.1258 78.5327 44.6153 78.7439 43.1557 79.1599L26.8045 83.7761L26.1463 82.6706L47.5389 69.9723C48.8104 69.2159 50.2627 68.8159 51.7427 68.8145ZM49.6704 19.9262L45.2423 39.1006C44.8557 40.7799 44.207 42.3881 43.32 43.8661L35.0546 57.6026C34.3754 58.7366 33.559 59.7828 32.6236 60.7174L20.3789 73.0198L21.0372 74.1178L41.8988 61.7184C43.059 61.0238 44.032 60.0572 44.7337 58.9023L49.7752 50.5588C50.5471 49.2805 50.9556 47.8163 50.957 46.3236V19.9262H49.6704ZM67.405 39.1006L62.9768 19.9262H61.6903V46.3236C61.6917 47.8163 62.1002 49.2805 62.8721 50.5588L67.9136 58.9023C68.6133 60.0568 69.5869 61.0214 70.7485 61.7109L91.6101 74.1178L92.2683 73.0198L80.0237 60.7174C79.0947 59.7791 78.2811 58.7335 77.6001 57.6026L69.3273 43.8661C68.443 42.3867 67.7945 40.779 67.405 39.1006Z" fill="white"/>
<path d="M155.527 121.079H139.669V145.875H133.223V115.418H155.527V121.079ZM158.986 130.692C158.986 128.176 159.353 125.938 160.086 123.976C160.82 122 161.853 120.337 163.186 118.99C164.534 117.642 166.143 116.616 168.015 115.913C169.887 115.194 171.968 114.834 174.259 114.834C176.685 114.834 178.841 115.216 180.728 115.98C182.63 116.744 184.239 117.822 185.557 119.214C186.875 120.607 187.878 122.277 188.567 124.223C189.256 126.155 189.6 128.296 189.6 130.647C189.6 133.013 189.256 135.169 188.567 137.116C187.878 139.062 186.875 140.732 185.557 142.125C184.239 143.517 182.63 144.595 180.728 145.359C178.841 146.123 176.685 146.504 174.259 146.504C171.968 146.504 169.887 146.153 168.015 145.449C166.143 144.73 164.534 143.697 163.186 142.349C161.853 141.001 160.82 139.347 160.086 137.385C159.353 135.424 158.986 133.193 158.986 130.692ZM165.791 130.647C165.791 132.399 165.994 133.919 166.398 135.207C166.802 136.494 167.371 137.557 168.105 138.396C168.854 139.235 169.745 139.856 170.778 140.26C171.826 140.665 172.986 140.867 174.259 140.867C175.712 140.867 176.969 140.605 178.033 140.081C179.111 139.556 179.994 138.838 180.683 137.924C181.387 137.011 181.903 135.933 182.233 134.69C182.577 133.432 182.749 132.084 182.749 130.647C182.749 129.209 182.577 127.869 182.233 126.626C181.903 125.384 181.387 124.313 180.683 123.415C179.994 122.501 179.111 121.782 178.033 121.258C176.969 120.734 175.712 120.472 174.259 120.472C172.986 120.472 171.826 120.674 170.778 121.079C169.745 121.483 168.854 122.104 168.105 122.943C167.371 123.781 166.802 124.845 166.398 126.132C165.994 127.405 165.791 128.91 165.791 130.647ZM196.338 115.733C197.656 115.493 199.078 115.314 200.606 115.194C202.148 115.059 203.713 114.992 205.3 114.992C206.154 114.992 207.022 115.037 207.906 115.126C208.804 115.201 209.68 115.336 210.534 115.531C211.387 115.71 212.196 115.965 212.959 116.294C213.723 116.609 214.412 117.006 215.026 117.485C216.059 118.293 216.89 119.334 217.519 120.607C218.148 121.88 218.462 123.4 218.462 125.167C218.462 127.053 218.11 128.67 217.407 130.018C216.703 131.366 215.759 132.466 214.577 133.32C213.409 134.173 212.061 134.802 210.534 135.207C209.021 135.596 207.456 135.791 205.839 135.791C205.689 135.791 205.472 135.791 205.188 135.791C204.918 135.776 204.634 135.761 204.334 135.746C204.035 135.731 203.743 135.716 203.458 135.701C203.174 135.671 202.949 135.641 202.785 135.611V145.875H196.338V115.733ZM205.704 120.652C205.076 120.652 204.514 120.674 204.02 120.719C203.541 120.749 203.129 120.794 202.785 120.854V129.906C202.904 129.936 203.077 129.966 203.301 129.996C203.541 130.026 203.788 130.056 204.042 130.085C204.297 130.1 204.544 130.115 204.784 130.13C205.023 130.13 205.21 130.13 205.345 130.13C206.199 130.13 207 130.063 207.748 129.928C208.512 129.778 209.178 129.524 209.747 129.165C210.316 128.79 210.766 128.296 211.095 127.682C211.439 127.053 211.612 126.26 211.612 125.301C211.612 124.418 211.454 123.677 211.14 123.078C210.841 122.479 210.421 122 209.882 121.64C209.358 121.281 208.737 121.026 208.018 120.876C207.299 120.727 206.528 120.652 205.704 120.652ZM222.64 130.692C222.64 128.176 223.007 125.938 223.741 123.976C224.474 122 225.508 120.337 226.84 118.99C228.188 117.642 229.798 116.616 231.669 115.913C233.541 115.194 235.622 114.834 237.913 114.834C240.339 114.834 242.495 115.216 244.382 115.98C246.284 116.744 247.894 117.822 249.211 119.214C250.529 120.607 251.532 122.277 252.221 124.223C252.91 126.155 253.254 128.296 253.254 130.647C253.254 133.013 252.91 135.169 252.221 137.116C251.532 139.062 250.529 140.732 249.211 142.125C247.894 143.517 246.284 144.595 244.382 145.359C242.495 146.123 240.339 146.504 237.913 146.504C235.622 146.504 233.541 146.153 231.669 145.449C229.798 144.73 228.188 143.697 226.84 142.349C225.508 141.001 224.474 139.347 223.741 137.385C223.007 135.424 222.64 133.193 222.64 130.692ZM229.446 130.647C229.446 132.399 229.648 133.919 230.052 135.207C230.456 136.494 231.025 137.557 231.759 138.396C232.508 139.235 233.399 139.856 234.432 140.26C235.48 140.665 236.641 140.867 237.913 140.867C239.366 140.867 240.624 140.605 241.687 140.081C242.765 139.556 243.648 138.838 244.337 137.924C245.041 137.011 245.558 135.933 245.887 134.69C246.231 133.432 246.404 132.084 246.404 130.647C246.404 129.209 246.231 127.869 245.887 126.626C245.558 125.384 245.041 124.313 244.337 123.415C243.648 122.501 242.765 121.782 241.687 121.258C240.624 120.734 239.366 120.472 237.913 120.472C236.641 120.472 235.48 120.674 234.432 121.079C233.399 121.483 232.508 122.104 231.759 122.943C231.025 123.781 230.456 124.845 230.052 126.132C229.648 127.405 229.446 128.91 229.446 130.647ZM284.767 151.266H280.207L279.489 145.875H259.723L259.027 151.266H254.467V140.215H257.544C257.694 140.006 257.904 139.631 258.173 139.092C258.458 138.538 258.765 137.797 259.094 136.869C259.424 135.94 259.753 134.81 260.082 133.477C260.412 132.144 260.704 130.595 260.958 128.828C261.213 127.061 261.4 125.069 261.52 122.853C261.655 120.622 261.685 118.144 261.61 115.418H280.612V140.215H284.767V151.266ZM274.143 140.215V121.079H267.517C267.472 122.501 267.382 124.051 267.247 125.728C267.128 127.405 266.933 129.105 266.663 130.827C266.409 132.534 266.064 134.203 265.63 135.835C265.196 137.453 264.657 138.913 264.013 140.215H274.143Z" fill="white"/>
</svg>
